<mxfile host="65bd71144e">
    <diagram id="dqUZDroKleUkhoAigFYG" name="Page-1">
        <mxGraphModel dx="894" dy="643" grid="0" gridSize="10" guides="1" tooltips="1" connect="1" arrows="1" fold="1" page="1" pageScale="1" pageWidth="850" pageHeight="1100" background="#ffffff" math="0" shadow="0">
            <root>
                <mxCell id="0"/>
                <mxCell id="1" parent="0"/>
                <mxCell id="52" value="messages&lt;br&gt;executed as single transaction" style="shape=umlFrame;whiteSpace=wrap;html=1;fontColor=#004C99;strokeColor=#004C99;fillColor=none;gradientColor=#ffffff;width=90;height=61;" parent="1" vertex="1">
                    <mxGeometry x="77" y="420" width="640" height="257" as="geometry"/>
                </mxCell>
                <mxCell id="8" value="Dispatcher" style="shape=umlLifeline;perimeter=lifelinePerimeter;whiteSpace=wrap;html=1;container=1;collapsible=0;recursiveResize=0;outlineConnect=0;strokeColor=#000000;fontColor=#000000;labelBackgroundColor=#FFFFFF;fillColor=#FFFFFF;" parent="1" vertex="1">
                    <mxGeometry x="140" y="20" width="100" height="680" as="geometry"/>
                </mxCell>
                <mxCell id="13" value="alarm" style="html=1;verticalAlign=bottom;endArrow=block;strokeColor=#000000;fontColor=#000000;labelBackgroundColor=#FFFFFF;" parent="8" edge="1">
                    <mxGeometry width="80" relative="1" as="geometry">
                        <mxPoint x="-30" y="120" as="sourcePoint"/>
                        <mxPoint x="50" y="120" as="targetPoint"/>
                    </mxGeometry>
                </mxCell>
                <mxCell id="18" value="" style="html=1;points=[];perimeter=orthogonalPerimeter;strokeColor=#000000;fontColor=#000000;labelBackgroundColor=#FFFFFF;" parent="8" vertex="1">
                    <mxGeometry x="45" y="230" width="10" height="40" as="geometry"/>
                </mxCell>
                <mxCell id="19" value="calculate&lt;br&gt;reward, LPN" style="edgeStyle=orthogonalEdgeStyle;html=1;align=left;spacingLeft=2;endArrow=block;rounded=0;entryX=1;entryY=0;strokeColor=#000000;fontColor=#000000;labelBackgroundColor=#FFFFFF;" parent="8" target="18" edge="1">
                    <mxGeometry relative="1" as="geometry">
                        <mxPoint x="55" y="210" as="sourcePoint"/>
                        <Array as="points">
                            <mxPoint x="85" y="210"/>
                        </Array>
                    </mxGeometry>
                </mxCell>
                <mxCell id="26" value="" style="html=1;points=[];perimeter=orthogonalPerimeter;strokeColor=#000000;fontColor=#000000;labelBackgroundColor=#FFFFFF;" parent="8" vertex="1">
                    <mxGeometry x="45" y="380" width="10" height="40" as="geometry"/>
                </mxCell>
                <mxCell id="27" value="calculate&lt;br&gt;reward, uNLS" style="edgeStyle=orthogonalEdgeStyle;html=1;align=left;spacingLeft=2;endArrow=block;rounded=0;entryX=1;entryY=0;strokeColor=#000000;fontColor=#000000;labelBackgroundColor=#FFFFFF;" parent="8" target="26" edge="1">
                    <mxGeometry relative="1" as="geometry">
                        <mxPoint x="55" y="360" as="sourcePoint"/>
                        <Array as="points">
                            <mxPoint x="85" y="360"/>
                        </Array>
                    </mxGeometry>
                </mxCell>
                <mxCell id="49" value="" style="html=1;points=[];perimeter=orthogonalPerimeter;fontColor=#000000;fillColor=#2A2A2A;strokeColor=#000000;" parent="8" vertex="1">
                    <mxGeometry x="45" y="502" width="10" height="69" as="geometry"/>
                </mxCell>
                <mxCell id="9" value="LPP" style="shape=umlLifeline;perimeter=lifelinePerimeter;whiteSpace=wrap;html=1;container=1;collapsible=0;recursiveResize=0;outlineConnect=0;strokeColor=#000000;fontColor=#000000;labelBackgroundColor=#FFFFFF;fillColor=#FFFFFF;gradientColor=#ffffff;" parent="1" vertex="1">
                    <mxGeometry x="324" y="20" width="103" height="681" as="geometry"/>
                </mxCell>
                <mxCell id="14" value="" style="html=1;points=[];perimeter=orthogonalPerimeter;strokeColor=#000000;fontColor=#000000;labelBackgroundColor=#FFFFFF;" parent="9" vertex="1">
                    <mxGeometry x="45" y="120" width="10" height="80" as="geometry"/>
                </mxCell>
                <mxCell id="41" value="" style="html=1;points=[];perimeter=orthogonalPerimeter;strokeColor=#000000;fontColor=#000000;labelBackgroundColor=#FFFFFF;" parent="9" vertex="1">
                    <mxGeometry x="46.5" y="599" width="10" height="40" as="geometry"/>
                </mxCell>
                <mxCell id="42" value="update &lt;br&gt;reward&lt;br&gt;pool" style="edgeStyle=orthogonalEdgeStyle;html=1;align=left;spacingLeft=2;endArrow=block;rounded=0;entryX=1;entryY=0;strokeColor=#000000;fontColor=#000000;labelBackgroundColor=#FFFFFF;" parent="9" target="41" edge="1">
                    <mxGeometry relative="1" as="geometry">
                        <mxPoint x="51" y="573" as="sourcePoint"/>
                        <Array as="points">
                            <mxPoint x="81" y="573"/>
                            <mxPoint x="81" y="599"/>
                        </Array>
                    </mxGeometry>
                </mxCell>
                <mxCell id="10" value="Market" style="shape=umlLifeline;perimeter=lifelinePerimeter;whiteSpace=wrap;html=1;container=1;collapsible=0;recursiveResize=0;outlineConnect=0;strokeColor=#000000;fontColor=#000000;labelBackgroundColor=#FFFFFF;fillColor=#FFFFFF;" parent="1" vertex="1">
                    <mxGeometry x="460" y="20" width="100" height="679" as="geometry"/>
                </mxCell>
                <mxCell id="20" value="" style="html=1;points=[];perimeter=orthogonalPerimeter;strokeColor=#000000;fontColor=#000000;labelBackgroundColor=#FFFFFF;" parent="10" vertex="1">
                    <mxGeometry x="45" y="270" width="10" height="80" as="geometry"/>
                </mxCell>
                <mxCell id="11" value="Treatury" style="shape=umlLifeline;perimeter=lifelinePerimeter;whiteSpace=wrap;html=1;container=1;collapsible=0;recursiveResize=0;outlineConnect=0;strokeColor=#000000;fontColor=#000000;labelBackgroundColor=#FFFFFF;fillColor=#FFFFFF;" parent="1" vertex="1">
                    <mxGeometry x="580" y="20" width="100" height="678" as="geometry"/>
                </mxCell>
                <mxCell id="28" value="" style="html=1;points=[];perimeter=orthogonalPerimeter;strokeColor=#000000;fontColor=#000000;labelBackgroundColor=#FFFFFF;" parent="11" vertex="1">
                    <mxGeometry x="45" y="420" width="10" height="80" as="geometry"/>
                </mxCell>
                <mxCell id="12" value="Time Oracle" style="shape=umlActor;verticalLabelPosition=bottom;verticalAlign=top;html=1;strokeColor=#000000;fontColor=#000000;labelBackgroundColor=#FFFFFF;fillColor=#FFFFFF;" parent="1" vertex="1">
                    <mxGeometry x="40" y="90" width="30" height="60" as="geometry"/>
                </mxCell>
                <mxCell id="15" value="query balance" style="html=1;verticalAlign=bottom;endArrow=block;entryX=0;entryY=0;strokeColor=#000000;fontColor=#000000;labelBackgroundColor=#FFFFFF;" parent="1" source="8" target="14" edge="1">
                    <mxGeometry relative="1" as="geometry">
                        <mxPoint x="270" y="140" as="sourcePoint"/>
                    </mxGeometry>
                </mxCell>
                <mxCell id="16" value="balance, LPN" style="html=1;verticalAlign=bottom;endArrow=open;dashed=1;endSize=8;exitX=0;exitY=0.95;strokeColor=#000000;fontColor=#000000;labelBackgroundColor=#FFFFFF;" parent="1" source="14" target="8" edge="1">
                    <mxGeometry relative="1" as="geometry">
                        <mxPoint x="270" y="216" as="targetPoint"/>
                    </mxGeometry>
                </mxCell>
                <mxCell id="21" value="query LPN price in uNLS" style="html=1;verticalAlign=bottom;endArrow=block;entryX=0;entryY=0;strokeColor=#000000;fontColor=#000000;labelBackgroundColor=#FFFFFF;" parent="1" source="8" target="20" edge="1">
                    <mxGeometry relative="1" as="geometry">
                        <mxPoint x="430" y="290" as="sourcePoint"/>
                    </mxGeometry>
                </mxCell>
                <mxCell id="22" value="price in uNLS" style="html=1;verticalAlign=bottom;endArrow=open;dashed=1;endSize=8;exitX=0;exitY=0.95;strokeColor=#000000;fontColor=#000000;labelBackgroundColor=#FFFFFF;" parent="1" source="20" target="8" edge="1">
                    <mxGeometry relative="1" as="geometry">
                        <mxPoint x="430" y="366" as="targetPoint"/>
                    </mxGeometry>
                </mxCell>
                <mxCell id="29" value="send WasmMsg:Exec:SendRewards" style="html=1;verticalAlign=bottom;startArrow=oval;endArrow=block;startSize=8;strokeColor=#000000;fontColor=#000000;labelBackgroundColor=#FFFFFF;" parent="1" source="8" target="28" edge="1">
                    <mxGeometry relative="1" as="geometry">
                        <mxPoint x="570" y="440" as="sourcePoint"/>
                    </mxGeometry>
                </mxCell>
                <mxCell id="44" value="send &lt;br&gt;WasmMsg:Exec:DispatchRewards,&lt;br&gt;+ reward uNLS as funds" style="html=1;verticalAlign=bottom;startArrow=baseDash;startFill=0;endArrow=open;startSize=6;endSize=8;fillColor=#1ba1e2;strokeColor=#000000;fontColor=#000000;labelBackgroundColor=#FFFFFF;" parent="1" edge="1" target="9">
                    <mxGeometry width="80" relative="1" as="geometry">
                        <mxPoint x="192" y="592" as="sourcePoint"/>
                        <mxPoint x="347" y="592" as="targetPoint"/>
                        <Array as="points">
                            <mxPoint x="310.5" y="592"/>
                        </Array>
                    </mxGeometry>
                </mxCell>
                <mxCell id="47" value="BankMsg, reward uNLS" style="html=1;verticalAlign=bottom;endArrow=block;exitX=0.1;exitY=1.013;exitDx=0;exitDy=0;exitPerimeter=0;fillColor=#1ba1e2;strokeColor=#000000;labelBackgroundColor=#FFFFFF;fontColor=#000000;" parent="1" source="28" target="8" edge="1">
                    <mxGeometry width="80" relative="1" as="geometry">
                        <mxPoint x="384" y="395" as="sourcePoint"/>
                        <mxPoint x="464" y="395" as="targetPoint"/>
                    </mxGeometry>
                </mxCell>
                <mxCell id="43" value="return" style="html=1;verticalAlign=bottom;endArrow=open;dashed=1;endSize=8;strokeColor=#000000;fontColor=#000000;labelBackgroundColor=#FFFFFF;exitX=0.383;exitY=1.013;exitDx=0;exitDy=0;exitPerimeter=0;" parent="1" edge="1" target="8" source="41">
                    <mxGeometry relative="1" as="geometry">
                        <mxPoint x="371.5" y="631" as="sourcePoint"/>
                        <mxPoint x="221" y="631" as="targetPoint"/>
                    </mxGeometry>
                </mxCell>
            </root>
        </mxGraphModel>
    </diagram>
</mxfile>